<svg width="54" height="54" viewBox="0 0 54 54" fill="none" xmlns="http://www.w3.org/2000/svg">
<path d="M37.575 34.875L47.25 26.55L52.0312 26.9438L41.4 36.0563L44.6062 49.8938L40.4437 47.3625L37.575 34.875ZM32.3437 18.6188L29.1375 11.0813L30.9375 6.75L36.1125 18.9563L32.3437 18.6188ZM14.7937 42.4688L23.625 37.1813L32.4562 42.525L30.0937 32.5125L37.8562 25.7625L27.6187 24.8625L23.625 15.4125L19.6312 24.8063L9.39375 25.7063L17.1562 32.4563L14.7937 42.4688ZM9.73125 49.5L13.3875 33.6938L1.125 23.0625L17.325 21.6563L23.625 6.75L29.925 21.6563L46.125 23.0625L33.8625 33.6938L37.5187 49.5L23.625 41.1188L9.73125 49.5Z" fill="#FFC700"/>
<path d="M22.4003 14.6027C22.6997 13.6814 24.0031 13.6814 24.3024 14.6027L27.3866 24.0947C27.5204 24.5067 27.9044 24.7857 28.3376 24.7857L38.3181 24.7857C39.2868 24.7857 39.6896 26.0253 38.9059 26.5947L30.8315 32.4611C30.481 32.7157 30.3344 33.1671 30.4682 33.5791L33.5524 43.0711C33.8517 43.9924 32.7972 44.7585 32.0135 44.1891L23.9392 38.3227C23.5887 38.0681 23.1141 38.0681 22.7636 38.3227L14.6893 44.1891C13.9055 44.7585 12.8511 43.9924 13.1504 43.0711L16.2345 33.5791C16.3684 33.1671 16.2218 32.7157 15.8713 32.4611L7.79692 26.5947C7.01321 26.0253 7.41598 24.7857 8.38471 24.7857L18.3652 24.7857C18.7984 24.7857 19.1823 24.5067 19.3162 24.0947L22.4003 14.6027Z" fill="#FFC700"/>
</svg>
